<?xml version="1.0" encoding="UTF-8"?>
<svg version="1.1" xmlns="http://www.w3.org/2000/svg" width="1271" height="1231">
<path d="M0 0 C3.45430589 2.76688183 6.84026067 5.6122241 10.22216797 8.46679688 C13.13565354 10.89602857 16.12678629 13.21980662 19.125 15.54296875 C25.13185529 20.22425044 31.00606894 25.05633984 36.87084961 29.91381836 C41.26151729 33.54235862 45.69256644 37.10710245 50.1875 40.60546875 C55.42864244 44.68460271 60.57270527 48.86908193 65.6875 53.10546875 C71.49564126 57.91596865 77.35971941 62.63841035 83.30517578 67.27783203 C87.66190345 70.68062336 91.95267612 74.15667818 96.22265625 77.66796875 C105.48908494 85.28621843 114.80314328 92.83771191 124.25366211 100.2265625 C128.62501771 103.64930462 132.93430837 107.14157402 137.22265625 110.66796875 C146.48544231 118.28322369 155.79533915 125.83249207 165.24267578 133.21777344 C169.7158346 136.71984501 174.13544733 140.28084152 178.5 143.91796875 C180.40034947 145.46476483 182.34285667 146.96043268 184.3125 148.41796875 C185.323125 149.18109375 186.33375 149.94421875 187.375 150.73046875 C188.29667969 151.40335938 189.21835937 152.07625 190.16796875 152.76953125 C192.1875 155.10546875 192.1875 155.10546875 192.73828125 158.69140625 C192.1875 162.10546875 192.1875 162.10546875 190.43687248 163.79503822 C187.91219548 165.26585457 186.54355862 165.48224552 183.64675903 165.48641968 C182.28842453 165.49910889 182.28842453 165.49910889 180.90264893 165.51205444 C179.91657654 165.50598175 178.93050415 165.49990906 177.91455078 165.49365234 C176.87021881 165.4989093 175.82588684 165.50416626 174.74990845 165.50958252 C171.2940581 165.52279722 167.83866763 165.51403766 164.3828125 165.50390625 C161.98151562 165.50592686 159.58021934 165.50883819 157.17892456 165.51260376 C152.14347498 165.51702937 147.10818495 165.51058939 142.07275391 165.49658203 C135.62083766 165.47950863 129.1692963 165.48931844 122.71739388 165.50729942 C117.75712263 165.51814643 112.79694005 165.51468633 107.83666611 165.50691605 C105.45803661 165.50491563 103.07939904 165.50736773 100.70077896 165.51435471 C97.37338233 165.52198194 94.04658997 165.51034555 90.71923828 165.49365234 C89.73721436 165.49972504 88.75519043 165.50579773 87.7434082 165.51205444 C81.56315246 165.45467743 76.96637298 164.77411504 72.31640625 160.30859375 C71.79949219 159.6640625 71.28257812 159.01953125 70.75 158.35546875 C70.15445312 157.64648438 69.55890625 156.9375 68.9453125 156.20703125 C68.07519531 155.16675781 68.07519531 155.16675781 67.1875 154.10546875 C46.54441696 130.46753428 11.10206529 117.50274165 -19.57177734 115.234375 C-62.15868191 112.78439836 -100.67005668 124.10122528 -133.1171875 152.09375 C-149.45324288 167.41290234 -161.17640055 190.75976883 -162.015625 213.19921875 C-162.44481019 237.22000736 -155.17488217 257.58774253 -139.8125 276.10546875 C-139.19117188 276.88535156 -138.56984375 277.66523437 -137.9296875 278.46875 C-117.73463697 302.54155738 -84.44329476 316.29324248 -53.8125 320.10546875 C-52.97332031 320.21632813 -52.13414062 320.3271875 -51.26953125 320.44140625 C-14.27063764 324.58349116 25.96752318 315.62596207 55.48828125 292.34765625 C62.98227749 286.12254215 69.73860248 279.60421276 76.15625 272.29296875 C78.22298772 270.06725121 79.11079236 269.1802848 82.11912918 268.97124767 C83.31037966 268.96483745 83.31037966 268.96483745 84.5256958 268.95829773 C85.89252754 268.94756477 85.89252754 268.94756477 87.28697205 268.93661499 C88.28958572 268.93392609 89.2921994 268.93123718 90.32519531 268.9284668 C91.90588554 268.91861 91.90588554 268.91861 93.51850891 268.90855408 C97.01754827 268.88878935 100.51654465 268.87715126 104.015625 268.8671875 C105.20885124 268.86311197 106.40207748 268.85903645 107.6314621 268.85483742 C113.94717741 268.83396293 120.26287091 268.81966729 126.57861328 268.81030273 C133.10683937 268.79923674 139.63472475 268.76483814 146.16283035 268.72513103 C151.17798502 268.69900182 156.19305808 268.69061415 161.20827484 268.68702126 C163.61483816 268.6821456 166.0213976 268.67050394 168.42789459 268.65198326 C171.79628074 268.62767177 175.16377979 268.62854271 178.53222656 268.63549805 C180.02400169 268.61628296 180.02400169 268.61628296 181.5459137 268.59667969 C187.21132735 268.63932422 190.84471413 269.07336308 195.1875 273.10546875 C197.62284685 277.18102641 197.58917823 281.60131646 197.75683594 286.24121094 C197.79269806 287.04678436 197.82856018 287.85235779 197.86550903 288.68234253 C197.97940348 291.33868965 198.07782673 293.99522283 198.171875 296.65234375 C198.22094372 298.01871853 198.22094372 298.01871853 198.27100372 299.41269684 C198.44071513 304.23377353 198.59609122 309.055107 198.7421875 313.87695312 C198.86566733 317.85710339 199.01839841 321.8344604 199.19726562 325.8125 C199.41373316 330.62853753 199.57960407 335.4438594 199.70978546 340.2629776 C199.76743009 342.09271358 199.84243478 343.92199237 199.93553925 345.75026703 C200.64081841 360.02113543 200.64081841 360.02113543 197.03933716 365.18634033 C194.53084598 367.47155726 192.0555443 369.30352245 189.1875 371.10546875 C188.01741495 372.03420066 186.85685812 372.97520556 185.7109375 373.93359375 C184.67195312 374.7328125 183.63296875 375.53203125 182.5625 376.35546875 C177.38043404 380.37128261 172.26441646 384.45752519 167.1875 388.60546875 C159.36447669 394.9875077 151.43676658 401.22746981 143.47851562 407.43945312 C135.96966508 413.3044048 128.53087472 419.24501901 121.14892578 425.26904297 C116.30013775 429.21943071 111.40045173 433.09813329 106.4699707 436.94580078 C102.05644401 440.39921586 97.71100154 443.93043021 93.375 447.48046875 C87.91462559 451.94720697 82.37535659 456.2861517 76.75 460.54296875 C70.147715 465.54199307 63.72365642 470.72180672 57.35400391 476.01318359 C52.43835455 480.09232013 47.45780598 484.07228981 42.41845703 487.99707031 C38.01956862 491.43053232 33.69215143 494.94500645 29.375 498.48046875 C23.22952835 503.50777087 16.96798727 508.35563412 10.63378906 513.14208984 C4.63204895 517.70335719 -1.18267631 522.47127171 -6.92944336 527.34936523 C-19.42833399 537.83931301 -19.42833399 537.83931301 -27.4375 537.60546875 C-28.50226563 537.59515625 -29.56703125 537.58484375 -30.6640625 537.57421875 C-37.71014513 536.52517419 -42.43094835 532.18662264 -47.6875 527.73046875 C-49.20141639 526.46565908 -50.71574917 525.20134767 -52.23046875 523.9375 C-52.99407715 523.2976416 -53.75768555 522.6577832 -54.54443359 521.99853516 C-58.0060507 519.10925862 -61.49956448 516.26000842 -65 513.41796875 C-65.98528687 512.61721924 -65.98528687 512.61721924 -66.99047852 511.80029297 C-71.91380542 507.80965927 -76.88765077 503.88671649 -81.88012695 499.9831543 C-86.2510739 496.56092067 -90.55980026 493.06895899 -94.84765625 489.54296875 C-104.11408494 481.92471907 -113.42814328 474.37322559 -122.87866211 466.984375 C-127.25001771 463.56163288 -131.55930837 460.06936348 -135.84765625 456.54296875 C-145.11408494 448.92471907 -154.42814328 441.37322559 -163.87866211 433.984375 C-168.25001771 430.56163288 -172.55930837 427.06936348 -176.84765625 423.54296875 C-186.11408494 415.92471907 -195.42814328 408.37322559 -204.87866211 400.984375 C-209.25001771 397.56163288 -213.55930837 394.06936348 -217.84765625 390.54296875 C-227.10398771 382.93302035 -236.40735583 375.38894514 -245.84790039 368.00854492 C-259.95335938 356.96460937 -259.95335938 356.96460937 -263.8125 353.10546875 C-263.98601424 350.66866834 -264.03728609 348.34456858 -264.00097656 345.90869141 C-263.99540111 344.37057575 -263.99006162 342.83245922 -263.98492432 341.29434204 C-263.97577374 340.06732008 -263.97577374 340.06732008 -263.96643829 338.8155098 C-263.94373165 334.4731857 -263.98478771 330.13127781 -264.015625 325.7890625 C-264.05209519 320.26729299 -264.06992171 314.7477426 -264.01171875 309.22607422 C-263.96633556 304.76109802 -263.98987329 300.30094934 -264.05773163 295.83631516 C-264.07117976 294.14368427 -264.06015485 292.45065776 -264.02301788 290.75838089 C-263.75780524 280.22362688 -263.75780524 280.22362688 -268.90142822 271.42712402 C-271.82209549 268.75790142 -274.92411205 266.42203323 -278.1978302 264.20485306 C-280.1894944 262.84878362 -282.0398734 261.34967602 -283.890625 259.80859375 C-284.94527126 258.98747631 -286.00237156 258.16949595 -287.0625 257.35546875 C-288.13065164 256.52791562 -289.19834713 255.69977345 -290.265625 254.87109375 C-290.80509766 254.45279297 -291.34457031 254.03449219 -291.90039062 253.60351562 C-295.89805596 250.47153472 -299.85217315 247.28443917 -303.8125 244.10546875 C-304.03590401 248.69498905 -304.19867929 253.28131694 -304.30688477 257.875 C-304.3520005 259.43513117 -304.41331719 260.99488472 -304.49145508 262.55371094 C-305.27858707 271.51659519 -305.27858707 271.51659519 -301.89208984 279.33422852 C-299.59302648 280.80516991 -297.27885166 281.94637351 -294.8125 283.10546875 C-292.65625 285.5546875 -292.65625 285.5546875 -291.3125 287.79296875 C-290.8484375 288.53933594 -290.384375 289.28570313 -289.90625 290.0546875 C-286.37276082 296.67997971 -286.61977342 305.99778259 -288.68359375 313.10546875 C-292.35646406 321.00515046 -297.90051129 325.63191273 -305.8125 329.10546875 C-304.8225 329.76546875 -303.8325 330.42546875 -302.8125 331.10546875 C-295.92787065 335.92612298 -290.13427653 340.66873182 -287.8125 349.10546875 C-287.38558912 353.59431335 -287.43351129 358.06212032 -287.47192383 362.56811523 C-287.47277105 363.92873618 -287.47229311 365.28935849 -287.47059631 366.64997864 C-287.46973862 370.32725428 -287.48732736 374.00423396 -287.50831819 377.68144107 C-287.52712296 381.53045558 -287.52883841 385.37947752 -287.53239441 389.22853088 C-287.54170375 396.50988579 -287.56630238 403.79110492 -287.59644288 411.07240015 C-287.63002158 419.36500946 -287.6464816 427.65762538 -287.66152918 435.95028579 C-287.69285303 453.00210536 -287.74785109 470.05373801 -287.8125 487.10546875 C-305.6325 487.10546875 -323.4525 487.10546875 -341.8125 487.10546875 C-341.88028048 469.38104689 -341.9355187 451.65673603 -341.96793652 433.93222046 C-341.98339028 425.70199943 -342.00445121 417.47186479 -342.03881836 409.24169922 C-342.06876646 402.06636273 -342.08808584 394.89108882 -342.09476548 387.71569157 C-342.0986686 383.9180991 -342.10781017 380.12068561 -342.12969017 376.32315063 C-342.15014098 372.74447679 -342.15631658 369.16605469 -342.15182304 365.58732796 C-342.15303434 363.65652877 -342.16913135 361.72575664 -342.1857605 359.79502869 C-342.15099405 349.9843965 -340.57186862 343.22514666 -333.796875 335.87109375 C-330.73638032 333.14797643 -327.57677802 331.69042792 -323.8125 330.10546875 C-324.8025 329.44546875 -325.7925 328.78546875 -326.8125 328.10546875 C-333.55558379 323.38392548 -339.84445568 318.52588695 -341.8125 310.10546875 C-342.78408758 300.82258307 -342.54018212 292.76624359 -336.8125 285.10546875 C-333.50798016 281.57228794 -330.13515342 279.22633163 -325.8125 277.10546875 C-325.80885437 276.30890869 -325.80520874 275.51234863 -325.80145264 274.69165039 C-325.76347641 267.15920633 -325.70651557 259.62725161 -325.62859726 252.09512329 C-325.58920472 248.22339259 -325.55697637 244.35188651 -325.54150391 240.47998047 C-325.52628248 236.73846134 -325.49174163 232.9975601 -325.44419098 229.25631714 C-325.42943328 227.83394767 -325.42146222 226.41148996 -325.42061615 224.98904419 C-325.4095182 215.68064816 -325.08818821 208.94964734 -318.7265625 201.7421875 C-317.59347656 200.77732422 -317.59347656 200.77732422 -316.4375 199.79296875 C-315.55449219 199.03757812 -314.67148437 198.2821875 -313.76171875 197.50390625 C-310.03465409 194.47288943 -306.27429701 191.48879421 -302.47900391 188.54370117 C-297.6825114 184.81843815 -292.98768574 180.98152696 -288.3125 177.10546875 C-282.50461863 172.29466259 -276.64027154 167.57252009 -270.69482422 162.93310547 C-266.33809655 159.53031414 -262.04732388 156.05425932 -257.77734375 152.54296875 C-248.51091506 144.92471907 -239.19685672 137.37322559 -229.74633789 129.984375 C-225.37498229 126.56163288 -221.06569163 123.06936348 -216.77734375 119.54296875 C-207.51091506 111.92471907 -198.19685672 104.37322559 -188.74633789 96.984375 C-184.37498229 93.56163288 -180.06569163 90.06936348 -175.77734375 86.54296875 C-166.51091506 78.92471907 -157.19685672 71.37322559 -147.74633789 63.984375 C-143.37498229 60.56163288 -139.06569163 57.06936348 -134.77734375 53.54296875 C-126.18813175 46.4814822 -117.57472318 39.45162222 -108.8125 32.60546875 C-103.81203265 28.69794136 -98.85966103 24.73621289 -93.9375 20.73046875 C-93.27411621 20.19083496 -92.61073242 19.65120117 -91.92724609 19.09521484 C-88.47575542 16.28415539 -85.03155942 13.46449175 -81.59375 10.63671875 C-57.05468792 -9.51177585 -28.6860807 -22.3074278 0 0 Z M-247.8125 289.10546875 C-247.86414079 294.86937575 -247.86973346 300.63053277 -247.82421875 306.39453125 C-247.79168325 311.10542652 -247.85387428 315.79733716 -248.01351929 320.50434875 C-249.27985023 336.81973997 -249.27985023 336.81973997 -244.12109375 351.484375 C-241.31737486 354.19572648 -238.18189711 356.14550763 -234.76318359 357.99560547 C-231.54497267 359.82664262 -228.7932496 362.20170574 -225.9375 364.54296875 C-224.77577703 365.45091808 -223.61167655 366.35583293 -222.4453125 367.2578125 C-218.52129159 370.3170915 -214.66591325 373.45801375 -210.8125 376.60546875 C-205.87321033 380.6377349 -200.90430396 384.62358015 -195.875 388.54296875 C-189.86954749 393.22611979 -183.99399691 398.0562853 -178.12915039 402.91381836 C-173.73848271 406.54235862 -169.30743356 410.10710245 -164.8125 413.60546875 C-159.57135756 417.68460271 -154.42729473 421.86908193 -149.3125 426.10546875 C-143.50435874 430.91596865 -137.64028059 435.63841035 -131.69482422 440.27783203 C-127.33809655 443.68062336 -123.04732388 447.15667818 -118.77734375 450.66796875 C-109.51091506 458.28621843 -100.19685672 465.83771191 -90.74633789 473.2265625 C-86.37498229 476.64930462 -82.06569163 480.14157402 -77.77734375 483.66796875 C-67.92131381 491.77094989 -58.01342534 499.80396538 -47.953125 507.65234375 C-45.97741613 509.19555913 -44.00773424 510.74655333 -42.046875 512.30859375 C-40.84804688 513.25992188 -40.84804688 513.25992188 -39.625 514.23046875 C-38.95082031 514.76929688 -38.27664063 515.308125 -37.58203125 515.86328125 C-34.49013557 518.03375107 -31.67009583 518.28781721 -28 518.35546875 C-27.16855469 518.38125 -26.33710937 518.40703125 -25.48046875 518.43359375 C-18.90066414 517.62436449 -14.20759852 513.21026272 -9.3125 509.10546875 C-7.88622166 507.92741012 -6.45912401 506.75034282 -5.03125 505.57421875 C-4.32097656 504.98769531 -3.61070312 504.40117188 -2.87890625 503.796875 C0.10702798 501.35281163 3.1428905 498.97574224 6.1875 496.60546875 C11.26053821 492.64703313 16.26734769 488.6145075 21.25 484.54296875 C27.0374487 479.815816 32.9056909 475.22707099 38.84765625 470.6953125 C43.36491068 467.22018826 47.76290339 463.59813912 52.17578125 459.9921875 C57.03685823 456.02510169 61.95000631 452.1323608 66.89599609 448.27197266 C71.39391694 444.75180533 75.82726805 441.15697257 80.25 437.54296875 C86.0374487 432.815816 91.9056909 428.22707099 97.84765625 423.6953125 C102.36491068 420.22018826 106.76290339 416.59813912 111.17578125 412.9921875 C116.03685823 409.02510169 120.95000631 405.1323608 125.89599609 401.27197266 C130.39391694 397.75180533 134.82726805 394.15697257 139.25 390.54296875 C145.02593676 385.82521888 150.88186432 381.24476595 156.8125 376.72265625 C162.76408758 372.14423617 168.55003624 367.35316078 174.35742188 362.59423828 C176.1875 361.10546875 176.1875 361.10546875 178.87548828 359.54614258 C182.44105011 355.78215931 181.83130987 352.17139243 181.7109375 347.171875 C181.70623444 346.18412582 181.70153137 345.19637665 181.69668579 344.17869568 C181.67534707 341.00774657 181.61894803 337.8384665 181.5625 334.66796875 C181.54597788 332.59962577 181.5316337 330.53126418 181.51953125 328.46289062 C181.41283049 315.32584614 180.91032824 302.22196833 180.1875 289.10546875 C176.85912792 290.70369886 174.27715967 292.54129707 171.4375 294.91796875 C170.46941406 295.72105469 169.50132812 296.52414062 168.50390625 297.3515625 C167.9742627 297.79226074 167.44461914 298.23295898 166.89892578 298.68701172 C163.74053712 301.3047347 160.55783978 303.89257371 157.375 306.48046875 C156.6951001 307.03355713 156.0152002 307.58664551 155.31469727 308.15649414 C150.29120183 312.23314652 145.21787669 316.24185389 140.12133789 320.2265625 C135.74998229 323.64930462 131.44069163 327.14157402 127.15234375 330.66796875 C117.88591506 338.28621843 108.57185672 345.83771191 99.12133789 353.2265625 C94.74998229 356.64930462 90.44069163 360.14157402 86.15234375 363.66796875 C77.56313175 370.7294553 68.94972318 377.75931528 60.1875 384.60546875 C52.43331138 390.66484325 44.81082608 396.88279206 37.1875 403.10546875 C28.39476147 410.28269934 19.58701771 417.43194492 10.62890625 424.40234375 C8.25387707 426.25463599 5.91406506 428.14297845 3.58984375 430.05859375 C-9.04251054 440.39976056 -22.04470733 446.64071729 -38.8125 445.10546875 C-52.58242171 443.07253913 -61.72904962 438.45267988 -72.19775391 429.47558594 C-75.29913096 426.84405766 -78.4661738 424.29247298 -81.625 421.73046875 C-82.3053833 421.17713867 -82.9857666 420.62380859 -83.68676758 420.05371094 C-88.70930776 415.97672293 -93.78254542 411.96875358 -98.87866211 407.984375 C-103.25001771 404.56163288 -107.55930837 401.06936348 -111.84765625 397.54296875 C-121.11408494 389.92471907 -130.42814328 382.37322559 -139.87866211 374.984375 C-144.25001771 371.56163288 -148.55930837 368.06936348 -152.84765625 364.54296875 C-162.11408494 356.92471907 -171.42814328 349.37322559 -180.87866211 341.984375 C-185.25001771 338.56163288 -189.55930837 335.06936348 -193.84765625 331.54296875 C-203.10877881 323.92908143 -212.41507717 316.37830453 -221.86328125 308.99755859 C-226.3843544 305.45994877 -230.82748391 301.83342642 -235.26171875 298.1875 C-241.06164248 292.47815878 -241.06164248 292.47815878 -247.8125 289.10546875 Z " fill="#FFFFFF" transform="translate(689.8125,308.89453125)"/>
<path d="M0 0 C3.80192395 1.31375382 6.26753639 2.87486542 9.1875 5.625 C13.13932921 9.25023175 17.21778481 12.62596159 21.421875 15.953125 C24.00971171 18.00771051 26.57037873 20.09179273 29.125 22.1875 C33.73923197 25.97169307 38.36690199 29.73893156 43 33.5 C48.37421379 37.86334083 53.73890395 42.23789721 59.09375 46.625 C62.72305284 49.59088189 66.36129332 52.54566832 70 55.5 C75.37417451 59.86338936 80.73890371 64.23789702 86.09375 68.625 C89.72305284 71.59088189 93.36129332 74.54566832 97 77.5 C102.37417451 81.86338936 107.73890371 86.23789702 113.09375 90.625 C116.72305284 93.59088189 120.36129332 96.54566832 124 99.5 C128.50644208 103.15886173 133.00976104 106.82125001 137.5 110.5 C144.64854276 116.35560753 151.82606826 122.17555379 159 128 C167.04170892 134.52898616 175.08106785 141.06039294 183.09375 147.625 C187.41886127 151.15949953 191.75610559 154.6790276 196.09326172 158.19873047 C199.94786302 161.32801834 203.79143365 164.46994097 207.625 167.625 C211.89234679 171.11410725 216.18420456 174.57108778 220.5 178 C221.10021973 178.48162598 221.70043945 178.96325195 222.31884766 179.45947266 C226.54951014 182.80226301 229.45060547 184.15116323 234.8125 184.25 C235.64394531 184.27578125 236.47539063 184.3015625 237.33203125 184.328125 C244.23984817 183.47855454 249.14020845 178.6420488 254.25 174.3125 C255.77433182 173.03857443 257.29906863 171.76513329 258.82421875 170.4921875 C259.55044434 169.88342773 260.27666992 169.27466797 261.02490234 168.64746094 C263.3455906 166.71173729 265.69566317 164.81645394 268.0625 162.9375 C272.40051034 159.48933793 276.70206279 155.99786043 281 152.5 C286.0857527 148.3618521 291.18586324 144.24370363 296.3125 140.15625 C299.88837821 137.28723143 303.44387927 134.39344878 307 131.5 C312.08580649 127.3619176 317.18586251 123.24370421 322.3125 119.15625 C325.88837821 116.28723143 329.44387927 113.39344878 333 110.5 C338.08580649 106.3619176 343.18586251 102.24370421 348.3125 98.15625 C351.88837821 95.28723143 355.44387927 92.39344878 359 89.5 C364.0908562 85.35780888 369.19559934 81.23505086 374.328125 77.14453125 C377.12289236 74.90136271 379.90175056 72.6394877 382.67944336 70.37524414 C388.39250049 65.71843906 394.1244097 61.09395749 399.9375 56.5625 C406.61889248 51.34833748 413.1524741 45.96294914 419.68359375 40.5625 C428.92079031 32.92714151 438.23026727 25.37730886 447.61328125 17.921875 C449.41616591 16.47012499 451.20243556 14.99770771 452.98046875 13.515625 C453.97691406 12.68546875 454.97335937 11.8553125 456 11 C456.9075 10.236875 457.815 9.47375 458.75 8.6875 C461 7 461 7 463 7 C463.93627672 17.06497472 459.9880977 26.83312918 453.9609375 34.7421875 C447.82169726 41.81087447 440.16672719 47.28611923 432.80859375 53.01171875 C428.82734255 56.11971651 424.91144643 59.30487347 421 62.5 C415.47683654 67.00788093 409.90814963 71.44843111 404.2890625 75.8359375 C399.81563025 79.33776455 395.40142446 82.90822679 391 86.5 C383.17655867 92.88153998 375.24927935 99.12199109 367.29101562 105.33398438 C359.78216508 111.19893605 352.34337472 117.13955026 344.96142578 123.16357422 C340.11467162 127.11230493 335.2164174 130.9885508 330.2890625 134.8359375 C325.81563292 138.33776247 321.40132798 141.90811164 317 145.5 C311.47660315 150.00759973 305.90815564 154.44842642 300.2890625 158.8359375 C295.81563292 162.33776247 291.40132798 165.90811164 287 169.5 C281.48224195 174.00299795 275.9232836 178.44441454 270.30444336 182.82055664 C267.10751761 185.31828291 263.94712673 187.85320363 260.81640625 190.43359375 C260.10806641 191.01625 259.39972656 191.59890625 258.66992188 192.19921875 C257.30678788 193.32358321 255.94715842 194.45221585 254.59179688 195.5859375 C247.55513099 201.38594371 241.40457042 205.2836299 232 205 C224.67878039 203.55976008 219.92881474 198.81499788 214.4765625 194.01953125 C211.16396218 191.11101986 207.73604506 188.38393245 204.25 185.6875 C198.92322475 181.54827965 193.69443599 177.30401123 188.5 173 C183.38530389 168.76349836 178.24113858 164.57913095 173 160.5 C167.75885756 156.42086604 162.61479473 152.23638682 157.5 148 C151.69185874 143.1895001 145.82778059 138.4670584 139.88232422 133.82763672 C135.52559655 130.42484539 131.23482388 126.94879057 126.96484375 123.4375 C117.69841506 115.81925032 108.38435672 108.26775684 98.93383789 100.87890625 C94.56248229 97.45616413 90.25319163 93.96389473 85.96484375 90.4375 C76.69841506 82.81925032 67.38435672 75.26775684 57.93383789 67.87890625 C53.56248229 64.45616413 49.25319163 60.96389473 44.96484375 57.4375 C41.38015606 54.49040499 37.78556128 51.55574096 34.1875 48.625 C33.50896973 48.06973633 32.83043945 47.51447266 32.13134766 46.94238281 C28.84761991 44.26582903 25.54546999 41.63583656 22.14453125 39.109375 C11.01167665 30.80493876 3.03697544 22.03627754 0 8 C-0.25641122 5.22648534 -0.21446153 2.7879999 0 0 Z " fill="#FFFFFF" transform="translate(427,681)"/>
</svg>
